<svg xmlns="http://www.w3.org/2000/svg" viewBox="0 0 556.47 312.52"><defs><style>.cls-1{fill:#009640;}.cls-2{fill:#1d1d1b;}</style></defs><g id="Capa_2" data-name="Capa 2"><g id="Capa_1-2" data-name="Capa 1"><path class="cls-1" d="M185.49,91.75C183.41-30.16,2.06-30.14,0,91.76,2.08,213.67,183.42,213.65,185.49,91.75Z"/><path class="cls-1" d="M371,91.75c-2.08-121.91-183.43-121.89-185.49,0C187.57,213.67,368.91,213.65,371,91.75Z"/><path class="cls-1" d="M556.47,91.75c-3-122-182.15-122.7-185.49,0C373.05,213.66,554.4,213.65,556.47,91.75Z"/><path class="cls-2" d="M148.45,227.22q-4.8,24.35-27.9,24.34-13.23,0-21.32-8.44t-8.08-22.83q0-13.77,7.64-22.47t20-8.71a30.11,30.11,0,0,1,9.78,1.6q4.44,1.77,8.88,3.46c1.42,0,2.31-1,2.67-3.11h8.35V214H140.1q-1.51-7-6-10.75a14.84,14.84,0,0,0-9.77-3.37A14.27,14.27,0,0,0,113,205.41q-4.67,5.55-4.67,14.08a23.56,23.56,0,0,0,4.84,14.93q4.84,6.21,12.13,6.21,10.58,0,15.63-13.41Z"/><path class="cls-2" d="M212.58,249.52H184.69V239c2.55,0,4.17-.54,4.89-1.61s1.06-3.39,1.06-7V228a12.05,12.05,0,0,0-1.82-7.09,6.26,6.26,0,0,0-5.46-2.54,6.88,6.88,0,0,0-5.73,2.81q-2.17,2.81-2.18,7.72v1.6q0,5,1.2,6.78t5,1.79v10.48H153.24v-10.4l1.69-.08q4,0,5.15-1.52t1.16-7V210.12q0-5.44-1.1-7c-.73-1-2.45-1.56-5.14-1.56h-1.76V191.06h22.21V215a19.2,19.2,0,0,1,4.62-5.2,16.33,16.33,0,0,1,10.48-3.68q5.77,0,9.24,3.12,5.07,4.56,5.07,15.37v6q0,5.35,1,6.92c.68,1,2.44,1.57,5.28,1.57h1.42Z"/><path class="cls-2" d="M267.84,236.78v3.4q0,7.08-2.89,9.14c-1.92,1.38-4.78,2.06-8.57,2.06s-6.44-.63-8.31-1.9-3-3.51-3.42-6.71a24.54,24.54,0,0,1-5.06,5.15,18.61,18.61,0,0,1-11.19,3.46q-6.14,0-9.42-3.06T215.69,239q0-9.24,7.51-12.26,1.78-.72,14-2.4,7.5-1.06,7.5-5.42a5.54,5.54,0,0,0-1.93-4.31,7.92,7.92,0,0,0-5.45-1.73,7.65,7.65,0,0,0-6.21,2.84,7.27,7.27,0,0,1,1.16,3,4.91,4.91,0,0,1-1.65,3.69,6.14,6.14,0,0,1-4.39,1.55,7.75,7.75,0,0,1-5.47-1.91,6.68,6.68,0,0,1-2.09-5.19q0-11,19.68-11,12.49,0,17.38,6.25,3,3.84,3,10.18v14.73a16.41,16.41,0,0,0,.22,3.57c.15.48.67.75,1.56.8,1.24,0,1.86-1.14,1.86-3.43v-7.14h5.51Zm-23.19-8.94q-1.32,2.22-7.19,4.53-5,2-5,4.62a3.39,3.39,0,0,0,1.16,2.58,4.14,4.14,0,0,0,2.93,1.06,6.61,6.61,0,0,0,5.77-2.75Q244.65,234.69,244.65,227.84Z"/><path class="cls-2" d="M314.92,217.45a11.82,11.82,0,0,1-1.95,6.84,5.93,5.93,0,0,1-5.07,2.84q-5.77,0-5.77-8a5,5,0,0,0-1.51-.18q-3.11,0-5.15,3.55a18.12,18.12,0,0,0-2.05,9.15c0,2.9.54,4.86,1.6,5.87s3.26,1.51,6.58,1.51v10.48H271.39v-10.4l1.78-.08c2.66,0,4.37-.49,5.11-1.48s1.11-3.31,1.11-7v-3.75q0-5.26-1.07-6.91t-5.15-1.65h-1.78V207.77h22V218a24.75,24.75,0,0,1,2.38-4.62q4.5-7.11,10.58-7.1a7.5,7.5,0,0,1,6,3.15A12.46,12.46,0,0,1,314.92,217.45Z"/><path class="cls-2" d="M369.29,249.52H347.7v-5.24a12.8,12.8,0,0,1-2.49,3.64,13.6,13.6,0,0,1-9.94,3.73q-7.47,0-12.57-6.52t-5.11-16.27a25.91,25.91,0,0,1,5.06-16q5.07-6.75,12.17-6.74A14.46,14.46,0,0,1,345,209.72a17.41,17.41,0,0,1,2.75,3.64v-3.11c0-3.63-.37-6-1.11-7.07s-2.5-1.63-5.28-1.63V191.06h20.52v39.52q0,5.43,1,6.94t5.28,1.52h1.16ZM348.06,229a12,12,0,0,0-2-7.09,6.26,6.26,0,0,0-5.38-2.81,6.59,6.59,0,0,0-5.28,2.67,11.15,11.15,0,0,0-2.18,7.23,11.89,11.89,0,0,0,2,7.14,6.35,6.35,0,0,0,5.41,2.86,6.44,6.44,0,0,0,5.29-2.68A11.63,11.63,0,0,0,348.06,229Z"/><path class="cls-2" d="M416.73,232.11H388.66q2.13,10.21,10.57,10.21,5.14,0,8.61-5h8.26q-3.37,8.52-8.79,11.63a23,23,0,0,1-11.64,2.67q-10.65,0-17.19-6.35T372,228.46q0-9.94,6.13-16.16t16.53-6.22q12.08,0,17.1,6T416.73,232.11Zm-14.22-8.27q-.79-9.41-7-9.41-6.4,0-7.56,9.41Z"/><path class="cls-2" d="M465.41,232.11H437.34q2.13,10.21,10.57,10.21,5.14,0,8.62-5h8.26q-3.37,8.52-8.8,11.63a23,23,0,0,1-11.64,2.67q-10.65,0-17.19-6.35t-6.52-16.84q0-9.94,6.12-16.16t16.53-6.22q12.07,0,17.1,6T465.41,232.11Zm-14.21-8.27q-.81-9.41-7-9.41-6.4,0-7.55,9.41Z"/><path class="cls-2" d="M106.25,310.39H73.47v-11.2c2.9,0,4.78-.51,5.64-1.55s1.29-3.3,1.29-6.8V270.77L64.76,310.39H60.68l-18-36.16v13.5c0,4.62.45,7.69,1.33,9.2s2.73,2.26,5.51,2.26h1.25v11.2H23.1V299.28l1.6-.09c3.37,0,5.54-.56,6.48-1.69q2.13-2.5,2.13-11.25V273.39q0-5.17-1.24-7.23-1.77-2.94-7.37-2.94H23.1V251.93h27l15.11,30.68,12.2-30.68h28.83v11.2l-1.6.09q-4.71,0-6.31,1.69-2.4,2.59-2.4,11.16v10.18q0,8.38,1.47,10.67c1,1.52,3.39,2.27,7.24,2.27h1.6Z"/><path class="cls-2" d="M163,297.65v3.4q0,7.08-2.88,9.14c-1.93,1.38-4.79,2.06-8.58,2.06s-6.44-.63-8.3-1.9-3-3.51-3.42-6.71a24.8,24.8,0,0,1-5.07,5.15,18.57,18.57,0,0,1-11.19,3.46c-4.09,0-7.22-1-9.42-3.06s-3.28-5.14-3.28-9.29q0-9.22,7.51-12.26,1.78-.7,13.94-2.39,7.52-1.06,7.51-5.42a5.54,5.54,0,0,0-1.94-4.31,7.84,7.84,0,0,0-5.44-1.73,7.62,7.62,0,0,0-6.21,2.84,7.23,7.23,0,0,1,1.15,3,4.94,4.94,0,0,1-1.64,3.69,6.17,6.17,0,0,1-4.4,1.55,7.74,7.74,0,0,1-5.46-1.91,6.66,6.66,0,0,1-2.09-5.2q0-11,19.68-11,12.5,0,17.37,6.25,3,3.84,3,10.18v14.73a16.21,16.21,0,0,0,.23,3.57c.14.48.66.75,1.55.8,1.24,0,1.87-1.14,1.87-3.43v-7.14H163Zm-23.18-8.94q-1.34,2.22-7.2,4.53-5,2-5,4.62a3.38,3.38,0,0,0,1.15,2.58,4.16,4.16,0,0,0,2.93,1.06,6.62,6.62,0,0,0,5.78-2.75Q139.83,295.56,139.83,288.71Z"/><path class="cls-2" d="M208,296.79A17.08,17.08,0,0,1,201.88,308q-5.12,4.23-13,4.22-9.87,0-16.22-6.44t-6.35-16.57q0-9.76,6.18-16.12t16-6.35q8.36,0,13.86,4.17a13.1,13.1,0,0,1,5.51,10.93,9.66,9.66,0,0,1-1.78,6,6,6,0,0,1-5.06,2.31,7.25,7.25,0,0,1-5.11-1.91,6.48,6.48,0,0,1-2.09-5q0-4.35,3.47-5.15a6.11,6.11,0,0,0-5.69-3.38q-3.83,0-6.4,3.87a17.74,17.74,0,0,0-2.57,10,18,18,0,0,0,2.66,10.09,8.17,8.17,0,0,0,7.11,4q5.33,0,7.73-6Z"/><path class="cls-2" d="M280.72,282q0,13.95-6.53,21.19t-19,7.24H212.5V299.28l1.68-.09q5,0,6.58-1.87,2.13-2.51,2.13-11.07V273.12c0-3.51-.42-5.89-1.24-7.14q-1.78-2.76-7.47-2.76H212.5V251.93h39.08q12.43,0,19.72,5.87Q280.72,265.34,280.72,282Zm-16.79-.36q0-9.59-4-14t-13.1-4.39h-8.44v36h9.41q8,0,11.82-3.73Q263.93,291.29,263.93,281.6Z"/><path class="cls-2" d="M329.58,293H301.51q2.13,10.22,10.57,10.21,5.15,0,8.62-5H329q-3.37,8.52-8.8,11.63a23,23,0,0,1-11.63,2.67q-10.66,0-17.19-6.35t-6.53-16.84q0-9.94,6.13-16.17T307.46,267q12.07,0,17.1,6T329.58,293Zm-14.21-8.27q-.81-9.4-7-9.41-6.41,0-7.55,9.41Z"/><path class="cls-2" d="M393.36,310.39h-27.8V299.9c2.43,0,4-.45,4.84-1.37s1.2-2.83,1.2-5.73v-4.18a11.41,11.41,0,0,0-1.82-6.79,5.94,5.94,0,0,0-5.11-2.54q-8.26,0-8.26,11.38V294c0,2.13.46,3.66,1.37,4.58s2.51,1.37,4.76,1.37v10.49H334.11V300l1.78-.09q4,0,5.15-1.5t1.15-6.9v-3.71q0-5.31-1-6.73-1.25-1.77-5.33-1.77l-1.78-.17V268.63h22.3v7a21.34,21.34,0,0,1,4.88-5.59,16.65,16.65,0,0,1,10.13-2.94q7.47,0,10.88,4.73t3.42,15.23v4.36c0,3.51.34,5.79,1,6.86s2.38,1.6,5.1,1.6h1.51Z"/><path class="cls-2" d="M456.26,310.39H428.45V299.9c2.43,0,4.05-.45,4.84-1.37s1.2-2.83,1.2-5.73v-4.18a11.41,11.41,0,0,0-1.82-6.79,5.92,5.92,0,0,0-5.11-2.54q-8.25,0-8.26,11.38V294c0,2.13.46,3.66,1.38,4.58s2.5,1.37,4.75,1.37v10.49H397V300l1.78-.09c2.67,0,4.38-.5,5.15-1.5s1.16-3.3,1.16-6.9v-3.71q0-5.31-1-6.73-1.25-1.77-5.33-1.77l-1.78-.17V268.63h22.3v7a21.54,21.54,0,0,1,4.89-5.59,16.63,16.63,0,0,1,10.13-2.94q7.46,0,10.88,4.73t3.42,15.23v4.36c0,3.51.34,5.79,1,6.86s2.38,1.6,5.11,1.6h1.51Z"/><path class="cls-2" d="M489.75,310.39H459.9V299.9h1.8q4,0,5.21-1.51t1.16-7v-3.75q0-5.18-1-6.69-1.25-1.87-5.33-1.87H459.9V268.63h22.3v22.81c0,3.62.32,5.94,1,6.95s2.36,1.51,5.15,1.51h1.42Z"/><path class="cls-2" d="M481.93,257.17A9,9,0,0,1,480,263a6.23,6.23,0,0,1-5.07,2.4,6.76,6.76,0,0,1-5.15-2.31,8.57,8.57,0,0,1-2.13-6,9.47,9.47,0,0,1,1.91-6,6.13,6.13,0,0,1,5.11-2.48,6.65,6.65,0,0,1,5.19,2.35A8.92,8.92,0,0,1,481.93,257.17Z"/><path class="cls-2" d="M533,297q0,7.14-4.75,11.2t-13.46,4.06a62.38,62.38,0,0,1-7.82-.6l-9.59-1.26h-2.93V297.51h6.13a13.8,13.8,0,0,0,12.7,8.44,6.37,6.37,0,0,0,4-1.12,3.65,3.65,0,0,0,1.47-3.08,2.75,2.75,0,0,0-1.2-2.19,10.5,10.5,0,0,0-4-1.56l-8-2.05q-5.87-1.24-8.53-4.46a14.17,14.17,0,0,1-2.93-9.28q0-7.86,5.33-11.78,4.71-3.48,12.88-3.48a51.7,51.7,0,0,1,7.73,1c1.25.18,3,.53,5.24,1l6.22-.44v13.23h-5.68a12.17,12.17,0,0,0-4.49-5.79,12.43,12.43,0,0,0-7.24-2.11,9.21,9.21,0,0,0-4.75,1.07,3.33,3.33,0,0,0-1.82,3,2,2,0,0,0,.93,1.7,19.68,19.68,0,0,0,4.66,1.6l7.82,2q5.15,1.15,7.46,2.94Q533,289.67,533,297Z"/></g></g></svg>