<svg xmlns="http://www.w3.org/2000/svg" viewBox="0 0 79.62 159.07"><defs><style>.cls-1{fill:#010101;}</style></defs><g id="Capa_2" data-name="Capa 2"><g id="Capa_1-2" data-name="Capa 1"><path class="cls-1" d="M79,42.53l-7-41.19A1.62,1.62,0,0,0,70.25,0H9.3A1.79,1.79,0,0,0,7.63,1.34l-7,41.19a41.19,41.19,0,0,0,5.86,29.3,40.37,40.37,0,0,0,27,17.58,4,4,0,0,1,3.18,3.85V149a3.82,3.82,0,0,1-3.34,3.85l-19.76,2.68a1.11,1.11,0,0,0-1,1.17v1.18a1.15,1.15,0,0,0,1.18,1.17H65.73a1.14,1.14,0,0,0,1.17-1.17v-1.18a1.12,1.12,0,0,0-1-1.17l-19.59-2.68A3.81,3.81,0,0,1,43,149V93.26a4,4,0,0,1,3.18-3.85A40.06,40.06,0,0,0,79,42.53Z"/></g></g></svg>